<?xml version="1.0" encoding="utf-8"?>
<!-- Generator: Adobe Illustrator 19.0.0, SVG Export Plug-In . SVG Version: 6.00 Build 0)  -->
<svg version="1.1" id="svg" xmlns="http://www.w3.org/2000/svg" xmlns:xlink="http://www.w3.org/1999/xlink" x="0px" y="0px"
	 viewBox="-105 117.5 400 559.5" style="enable-background:new -105 117.5 400 559.5;" xml:space="preserve">
<style type="text/css">
	.st0{fill:#1C1C24;}
	.st1{fill:#808080;}
	.st2{fill:#506C6F;}
	.st3{fill:#57575A;}
</style>
<g id="svgg">
	<path id="path0" class="st0" d="M57.1,120.9c24.5,1.2,143.2,13.1,148.1,14.8c5.9,2.1,10.7,10.3,11.6,20.1
		c0.3,3.5-1.7,402.4-2,406.6c-5.3,60.2-44.9,107.3-92.6,110.1c-9.2,0.5-24.8-2.3-34.9-6.4c-1.1-0.5-4-1.6-6.3-2.5
		c-2.3-0.9-8.3-3.6-13.2-5.9c-8.1-3.8-13.5-6.2-37.1-15.7C2.8,630.7,3.2,630.9-3.2,624.2c-14.4-15.2-23-35.5-25.4-60.3
		c-0.5-5.2-1.2-218.6-0.7-221.3c0.6-3.2,1.5-5,2.1-4.1c0.1,0.1,0,0.8-0.3,1.5c-0.2,0.7-0.5,2-0.6,2.9l-0.2,1.7l3.2-4.4
		c2-2.8,3.1-4.6,3-4.9c-0.1-0.3-0.3-1.1-0.3-1.9l-0.2-1.4l-1.6,2.3c-1.7,2.4-2,2.7-2.3,2.2c-0.1-0.2,0.9-1.9,2.3-3.8
		c11.7-16.5,17.7-31.8,21.4-55c2.4-14.8,2.6-18.9,2.5-67.4c0-47.7-0.2-44.4,2.4-49.6c1.9-3.8,3.6-5.6,19-19.4c8-7.2,15.5-14,16.6-15
		c3.8-3.6,7.6-5.2,13.2-5.7C51,120.6,53.8,120.7,57.1,120.9 M47.2,122.3c-7.1,2-12.7,10.2-13.4,19.5l-0.2,2.4h2h2l0.2-1.1
		c1.7-11,6.7-17.8,15.2-21C54.8,121.5,49.6,121.6,47.2,122.3 M55.9,122.5c-9.3,2.1-17,11.4-17.1,20.6l0,1.3l1.4-0.1l1.4-0.1l0.2-2
		c1-10.1,9.4-18,19-18h2.1l-0.1-1l-0.1-1l-2.5-0.1C58.8,122.1,56.9,122.2,55.9,122.5 M63.7,123.2c0,1.1-4.9,0.6,42.9,4.8
		c22.2,2,41,3.6,41.9,3.7c1.7,0.2,2-0.2,1-1.3c-0.5-0.6-3.4-0.9-42.6-4.3C58.3,121.7,63.7,122.1,63.7,123.2 M57.2,125.5
		c-6.6,1.4-12.1,7-14,14.2l-0.6,2.4l0.2,214L43,570h1c0.5,0,21.8-1.2,47.3-2.7c25.5-1.5,46.5-2.7,46.6-2.7c0.1,0,0.2-0.5,0.1-1.2
		c-0.8-5.8,3.3-11.9,9.1-13.9l1.8-0.6l0.1-11.4c0.2-32.9,1-404.6,0.9-404.7c-0.2-0.2-87.9-7.9-89.4-7.9
		C59.8,125,58.3,125.2,57.2,125.5 M37.9,127.6c-0.9,1-1.2,1.6-1.1,1.6c0.1,0,0.5-0.5,0.9-1C38.6,127.1,38.7,126.7,37.9,127.6
		 M35.7,130.7c-1.7,2.9-2.9,6.6-3.4,10.7c-0.6,4.7,0.1,331.8,0.7,331.2c0.1-0.1,0-74.2-0.1-164.8S32.8,142.2,33,141
		c0.3-2.9,1.5-6.9,2.8-9.5C36.9,129.2,36.9,128.8,35.7,130.7 M151.6,130.2c0,0.7,0.8,2,1.2,2c0.3,0,11.8,1.3,25.6,2.8
		c29.1,3.3,25.5,3,25.5,2.2c0-1.1-1-1.2-25.8-4c-13.5-1.5-25-2.9-25.5-2.9S151.6,130.1,151.6,130.2 M20.7,142.9
		C2.8,159,1.3,161,0.6,169.1l-0.2,2.2l0.8-0.2c0.4-0.1,7.3-6,15.3-13.1L31,145.1l0.2-2.5c0.2-3.1,1.4-7.7,2.5-10.2
		c0.5-1,0.8-1.9,0.7-1.9C34.3,130.7,28.2,136.2,20.7,142.9 M152,155.3c-0.1,12.3-0.3,86.1-0.5,164c-0.2,77.9-0.4,161.4-0.5,185.6
		l-0.2,44h0.8c3.6,0,6.3,4.1,6.6,10.2c0.1,1.8,0.2,3.2,0.3,3.2c0.4,0,54.8-10.5,54.9-10.6c0.2-0.2,2-393.9,1.7-396.1
		c-0.7-7.1-4.6-14.3-8.6-16.1c-1-0.4-51.7-6.5-54.3-6.5C152.2,133,152.1,143.1,152,155.3 M204.9,137.3c0.1,0.4,0.3,0.7,0.6,0.7
		c0.9,0,3.3,1.5,4.7,2.9c1.4,1.4,1.4,1.4,0.5,0.2c-1.3-1.7-3.1-3.2-4.5-4C204.7,136.4,204.7,136.4,204.9,137.3 M33.8,199.5
		c0,113.4,0.5,369.3,0.7,369.5c0.1,0.1,1,0.3,2,0.5l1.8,0.4l0-23.2c-0.1-216.9-0.6-401.1-0.9-401.3c-0.2-0.1-1.1-0.3-2-0.3l-1.6,0
		L33.8,199.5 M38.9,145.5c-0.2,0.3,0.1,424.2,0.3,424.5c0.1,0.1,0.7,0.2,1.4,0.3l1.3,0.1l-0.1-193.8c-0.1-106.6-0.2-202.3-0.3-212.6
		l-0.2-18.8h-1.1C39.7,145.2,39.1,145.3,38.9,145.5 M16.6,159.1L2.3,171.7l0.1,41.4c0,30.7,0,42.6-0.3,46
		c-2.9,36-10.2,58.8-25.8,80.9l-4.5,6.3l0.3,75.7c0.2,41.6,0.3,88.5,0.3,104.1c0,28.4,0,28.4,0.6,28.2c0.3-0.1,12.9,2.5,29.2,6
		l28.6,6.2l-0.2,0.8c-0.1,0.7,0.2,1.1,0.9,1.1c0.2,0,0.1-45.2-0.1-63.5l-0.2-15.3l-1.1-0.2c-6.9-1.4-6.9-18.8,0-18.3l1.3,0.1l0-79.2
		c0-43.6-0.1-116.7-0.2-162.4L31,146.5L16.6,159.1 M0.5,208.2c0,31.8,0.1,36,0.4,36s0.4-4.2,0.4-36s-0.1-36-0.4-36
		S0.5,176.4,0.5,208.2 M0.8,245.5c0,0-0.1,3.1-0.3,6.9c-1.2,31-8.2,57-20.1,75.3c-1.7,2.7-2.2,4.2-2,5.9c0.2,1.4,0.2,1.5,2.7-2.6
		C-7.1,312.2,0.5,282.6,1.3,252c0.1-4.9,0.1-6.6-0.2-6.6C1,245.4,0.8,245.5,0.8,245.5 M27.7,473.1c-2.5,3.7-2.1,11.6,0.6,14.4
		c0.8,0.8,1.1,0.9,1.3,0.6c0.2-0.3,0.1-0.5-0.3-0.8c-3.1-2.2-3.4-10.9-0.5-13.9l0.9-1h-0.8C28.4,472.4,28,472.6,27.7,473.1
		 M29.2,474.3c-2.9,3.1-1,13.7,2.3,12.8c0.3-0.1,0.9-0.2,1.1-0.2c0.5,0,0.5-0.5,0.5-6.7v-6.7h-1.6C30.2,473.6,29.8,473.7,29.2,474.3
		 M30.5,488.4c0,0.2,0.3,0.3,0.6,0.3c0.3,0,0.6-0.1,0.6-0.3c0-0.2-0.3-0.3-0.6-0.3C30.8,488.1,30.5,488.2,30.5,488.4 M32.8,488.7
		c-0.5,1-0.1,89.4,0.5,94c1.6,13.3,4.6,25.2,9.1,35.7c1.9,4.4,4,8.8,4.3,8.8c0.1,0-0.2-0.8-0.7-1.7c-5.2-10.4-9.4-24.2-11.3-37
		c-1.3-9.1-1.3-9.1-1.5-55.5C33.1,508.4,32.9,488.5,32.8,488.7 M151,550.1c0,0.2,0.4,0.5,0.8,0.7c2.4,1.2,3.9,4.7,3.9,9v2.5l0.8-0.1
		c1.9-0.2,0.8-8.2-1.5-10.6C153.8,550.3,151,549.3,151,550.1 M147.4,550.5c-0.5,0.2-0.9,0.3-0.9,0.4c0.2,0.1,2.3-0.4,2.3-0.6
		C148.9,550.1,148.6,550.1,147.4,550.5 M149.7,551.9c3.6,4.1,2,14.5-2.8,17.8l-1.4,1l1.6,0.1c8.2,0.5,11.2-18.2,3.1-19.4l-1.1-0.2
		L149.7,551.9 M146.1,552.3c-6.6,3.2-8.2,13.3-2.8,17.1c3.7,2.6,8.4-6.5,7.1-13.7C149.7,552.3,148.3,551.2,146.1,552.3 M185.5,558.1
		c-15,2.9-27.3,5.3-27.3,5.3c0,0-0.3,0.9-0.6,1.9c-2.8,10.3-14.6,11.8-18.4,2.3l-0.9-2.2l-1.5,0.2c-0.8,0.1-21.7,1.3-46.4,2.7
		c-24.7,1.4-45.5,2.6-46.2,2.7l-1.3,0.2l0.2,4.4c1.9,40.6,20,73,48.7,87.1c53.5,26.4,115.9-25.8,121.5-101.8
		c0.4-5.7,0.4-8.2-0.1-8.1C213,552.8,200.5,555.2,185.5,558.1 M-27.3,558.8c0,26.2,14,57.8,31.2,70.6c1,0.7,15,6.6,36.7,15.5
		c20.4,8.3,18.5,7.5,30.1,13c2.3,1.1,4,1.9,3.9,1.7c-0.2-0.1-1.4-1.1-2.8-2c-23.4-16.2-38.7-48-40-83.1l-0.2-5.1l-1.2-0.2
		c-0.7-0.1-13.9-2.9-29.3-6.2c-15.5-3.3-28.2-6.1-28.3-6.1C-27.3,556.9-27.3,557.8-27.3,558.8 M155,564.9
		c-2.3,7.8-10.5,9.4-14.5,2.9c-0.3-0.5-0.5-0.7-0.5-0.5c0,0.2,0.6,1.2,1.3,2.2c4.5,6.5,12.9,4.1,15.4-4.4c0.5-1.7,0.4-1.9-0.5-1.9
		C155.7,563.2,155.5,563.5,155,564.9 M34.4,573.1c0,37.8,20.2,75.6,47.5,89.2c3.7,1.8,3.6,1.8-0.2-0.6C56.1,646,38.2,609.4,38.2,573
		c0-2.3,0.1-2.2-2.4-2.6l-1.4-0.2L34.4,573.1 M39.1,571.7c0.1,26.1,9.3,53.9,23.9,72.2c20.4,25.6,54.2,34.5,84,22
		c3.3-1.4,3-1.6-0.4-0.2c-51.4,20.2-101.9-23.1-104.5-89.5l-0.2-5h-1.4C39.4,571.2,39.1,571.3,39.1,571.7 M150.7,664
		c-0.6,0.3-0.9,0.6-0.7,0.6s0.8-0.3,1.3-0.6c0.6-0.3,0.9-0.6,0.7-0.6S151.2,663.7,150.7,664"/>
	<path id="path1" class="st1" d="M46.8,121.4c-3.3,0.7-5.8,2-8.4,4.5c-1.1,1.1-8.1,7.3-15.4,13.9c-18.5,16.6-18.8,16.9-21,21.7
		c-2.3,4.9-2.1,0.8-2.1,50.2c0,33.7-0.1,45.2-0.4,48.4c-3,32.1-9.2,52.2-22.1,70.5c-2.1,3-3.8,5.5-3.8,5.6c0,0.6,0.6,0,2.1-2.1
		c1.9-2.7,2.1-2.8,2.1-1.1c0,0.7,0.1,1.6,0.3,2c0.3,0.7-5.6,9.7-6.3,9.7c-0.3,0,0-2.3,0.6-4.4c0.2-0.9,0.4-1.7,0.3-1.8
		c-0.4-0.4-0.8,0.5-1.4,2.8l-0.6,2.4l0.3,99.7c0.3,111.3,0.4,117.2,1,123c2.6,23.6,11.2,43.2,25.5,58c6.2,6.4,4.1,5.4,46.1,22.5
		c13.9,5.7,16.8,6.9,28.4,12.4c33,15.6,56.9,16.9,81.3,4.4c36.4-18.6,60.6-62.3,61.6-111.2c0.4-20.1,1.9-394.7,1.6-397.3
		c-1.3-10.8-6.1-18.4-12.8-20c-4.6-1.1-55.9-6.5-98-10.2C56.7,120.8,51.3,120.4,46.8,121.4 M54.7,121.7c-0.2,0.1-0.8,0.4-1.5,0.6
		c-7.8,2.4-14.3,11.1-15.2,20.3l-0.2,2l-1.5-0.2c-0.8-0.1-1.8-0.2-2.2-0.2c-0.7,0-0.7,0-0.5-2.2c0.9-10.2,6.5-18.1,14.2-20.1
		C50,121.5,55.2,121.2,54.7,121.7 M62.7,122.2c1.1,1.1,0.6,1.9-1.1,1.9c-9.9,0.1-17.7,7-19.5,17.3l-0.5,2.9l-1.6,0.1l-1.6,0.1
		l0.2-1.9c1.2-11,8.7-19.2,18.7-20.7C60.1,121.6,62.2,121.7,62.7,122.2 M106.5,125.9c23.4,2.1,42.8,3.9,42.9,4
		c0.2,0.1,0.4,0.6,0.6,1.1c0.4,1.2,4.4,1.4-43.5-2.8c-23-2-42-3.7-42.2-3.7c-0.3,0-0.5-0.4-0.6-1.2c-0.1-0.7,0-1.2,0-1.2
		C63.8,122,83.1,123.8,106.5,125.9 M105.5,128.7c24.5,2.2,44.6,4,44.7,4.1c0.4,0.4-1,416.3-1.4,416.5c-0.2,0.1-0.6,0.3-0.9,0.3
		c-0.3,0-1.4,0.5-2.6,1.1c-4.6,2.3-7.4,7.2-7.1,12.3l0.1,1.9l-47.6,2.7c-26.2,1.5-47.7,2.7-47.8,2.6c-0.3-0.3-0.6-426.2-0.3-428.5
		c1.4-9.5,8-15.7,17.9-16.9C60.8,124.7,81,126.5,105.5,128.7 M39.2,126.6c-1.9,2.2-3.3,4.4-4.4,7.6c-2.1,5.5-1.9-9.6-1.7,173.1
		c0.1,90.9,0.2,165.3,0.1,165.5c-0.9,1.2-0.9-0.9-1-166.4l-0.1-166.1l0.7-2.7c1.2-4.9,5.9-12.6,7.5-12.6
		C40.5,125,40,125.7,39.2,126.6 M34.1,132.1c-1.3,2.8-2.4,6.8-2.7,10.1c-0.2,1.8-0.4,3.1-0.7,3.3c-0.2,0.2-6.8,6.1-14.7,13
		c-16.9,14.9-16.4,14.6-15.4,8.9c0.9-5.1,3.1-9.3,6.9-13c2.9-2.8,27.2-24.6,27.3-24.5C34.9,130.2,34.6,131.1,34.1,132.1
		 M177.1,132.9c13.6,1.5,25.2,2.9,25.6,3.1c0.8,0.2,1.7,1.6,1.3,2c-0.1,0.1-51.9-5.6-52-5.8c-0.6-1.1-0.7-2-0.2-2
		C152.1,130,163.5,131.3,177.1,132.9 M179,135.8c27.7,3.1,27,3,29,4.3c4.9,3.3,7.4,10.1,7.6,21.2c0.1,7.2-1.6,390.3-1.8,390.5
		c0,0-12.2,2.4-27.1,5.3c-14.8,2.9-27.3,5.3-27.8,5.4l-0.8,0.2l0-2.9c0-6-2-9.7-5.8-10.5l-1.5-0.3l0.1-27.7
		c0.3-97.3,1-374.9,1-381.1l0-7.5l0.8,0.1C153.1,132.9,165,134.3,179,135.8 M151.2,149.9c0,3-0.1,0.5-0.1-5.7c0-6.2,0-8.7,0.1-5.5
		C151.2,141.7,151.2,146.8,151.2,149.9 M207.5,137.8c1.5,1,3.4,3.1,4.5,5c1,1.7,0.7,1.6-0.8-0.4c-1.3-1.7-4.2-3.8-5.6-4.2
		c-0.7-0.2-0.9-0.3-0.9-1.1C204.7,136.1,205.3,136.3,207.5,137.8 M37.8,145.3c0.1,0.1,0.6,424.5,0.5,424.7c0,0.1-1-0.1-2.1-0.3
		l-2.1-0.4L34,442.8c-0.1-69.6-0.3-165.1-0.4-212.2l-0.2-85.7l2.2,0.2C36.8,145.2,37.8,145.3,37.8,145.3 M41.9,244.9
		c0.1,54.9,0.2,150.5,0.2,212.6v112.8h-1.4h-1.4L39,526.9c-0.1-23.9-0.3-119.5-0.3-212.6l-0.2-169.2h1.6h1.6L41.9,244.9 M31.5,315.8
		l0.2,155.7h-1.8c-6.8,0-6.2,16.8,0.7,18l1.1,0.2v39.4c0,38.8,0,39.4-0.6,39.4c-0.3,0-0.7,0.1-0.8,0.3c-0.1,0.2,0.1,0.3,0.4,0.3
		c0.9,0,0.9-0.1,1.2,6.3c2.1,37.6,17.9,68.5,43.2,84.2c3,1.9,1.3,1.3-5.6-2c-9.7-4.7-9.7-4.6-24.3-10.6c-11.4-4.6-24.2-9.9-38-15.7
		c-10.1-4.2-23.9-23.8-29.7-42.3c-3.1-9.9-5.5-25.1-5.2-33.1c0-0.7-0.1-34.5-0.3-75.2c-0.2-40.7-0.3-87.7-0.4-104.3l0-30.3l4.1-5.7
		c15.4-21.5,22.4-42.5,25.8-77.7c0.5-4.6,0.5-9.8,0.5-48.1l0-42.9L16.6,159L31,146.2l0.2,7C31.3,157,31.4,230.2,31.5,315.8
		 M151.2,166.3c-0.1,2-0.1,0.4-0.1-3.6c0-4,0-5.6,0.1-3.6C151.2,161,151.2,164.3,151.2,166.3 M151.2,180.5c-0.1,2-0.1,0.4-0.1-3.5
		s0-5.6,0.1-3.7C151.2,175.3,151.2,178.5,151.2,180.5 M1.5,191.1c0.4,37.6,0.3,53.5-0.4,53.5c-0.6,0-1.3-71.5-0.8-72.4
		C1.3,170.8,1.3,171.9,1.5,191.1 M150.9,195.1c-0.1,2-0.1,0.4-0.1-3.6c0-4,0-5.6,0.1-3.6C150.9,189.8,150.9,193.1,150.9,195.1
		 M150.9,209.3c-0.1,2-0.1,0.4-0.1-3.5c0-3.9,0-5.6,0.1-3.7C150.9,204.1,150.9,207.3,150.9,209.3 M150.9,234.8c0,4-0.1,0.7-0.1-7.2
		c0-7.9,0-11.2,0.1-7.2C150.9,224.4,150.9,230.9,150.9,234.8 M150.9,263.6c0,4-0.1,0.7-0.1-7.2c0-7.9,0-11.2,0.1-7.2
		C150.9,253.2,150.9,259.7,150.9,263.6 M1.6,250.7c-0.9,24.2-4.9,45.8-12,63.6c-3.5,8.8-10.5,21.5-11.2,20.3
		c-0.6-1.1-0.1-4.1,0.9-5.6c13.3-20.7,20-45.5,21-77.9c0.2-5.6,0.2-5.9,0.8-5.9C1.8,245.1,1.8,245.3,1.6,250.7 M150.9,292.4
		c0,4-0.1,0.7-0.1-7.2c0-7.9,0-11.2,0.1-7.2C150.9,282,150.9,288.4,150.9,292.4 M150.6,321.2c0,4-0.1,0.7-0.1-7.2
		c0-7.9,0-11.2,0.1-7.2S150.6,317.2,150.6,321.2 M150.6,349.9c0,4-0.1,0.7-0.1-7.2c0-7.9,0-11.2,0.1-7.2
		C150.6,339.5,150.6,346,150.6,349.9 M150.6,378.7c0,4-0.1,0.7-0.1-7.2c0-7.9,0-11.2,0.1-7.2S150.6,374.8,150.6,378.7 M150.6,407.5
		c0,4-0.1,0.7-0.1-7.2c0-7.9,0-11.2,0.1-7.2C150.6,397.1,150.6,403.5,150.6,407.5 M150.3,436.3c0,4-0.1,0.7-0.1-7.2
		c0-7.9,0-11.1,0.1-7.2C150.3,425.8,150.3,432.3,150.3,436.3 M150.3,454.4c-0.1,2-0.1,0.4-0.1-3.5s0-5.6,0.1-3.7
		C150.3,449.1,150.3,452.3,150.3,454.4 M150.3,468.9c-0.1,2-0.1,0.4-0.1-3.6c0-4,0-5.6,0.1-3.6C150.3,463.6,150.3,466.9,150.3,468.9
		 M29.6,472.5c0,0.2-0.4,0.8-0.9,1.2c-2.6,2.5-2.3,10.3,0.5,13.3c0.9,0.9,0.6,1.8-0.5,1.2c-4-2.5-3.7-16.1,0.3-16.1
		C29.4,472.1,29.6,472.3,29.6,472.5 M31.7,472.4c0,0.2-0.3,0.3-0.6,0.3c-0.3,0-0.7-0.1-0.8-0.3c-0.1-0.2,0.1-0.3,0.6-0.3
		C31.4,472.1,31.7,472.2,31.7,472.4 M150.3,483.1c-0.1,2-0.1,0.4-0.1-3.5c0-3.9,0-5.6,0.1-3.7C150.3,477.9,150.3,481.1,150.3,483.1
		 M33,473.6c0.5,0,0.5,0.5,0.4,6.8l-0.1,6.7l-1.3,0.1c-1.7,0.1-2.6-0.5-3.5-2.6c-2.2-4.9-0.5-11.8,2.9-11.2
		C32,473.5,32.7,473.6,33,473.6 M150.3,497.7c-0.1,2-0.1,0.4-0.1-3.6c0-4,0-5.6,0.1-3.6C150.3,492.4,150.3,495.7,150.3,497.7
		 M31.8,488.6c-0.2,0.5-0.7,0.5-1.3,0.1c-0.4-0.2-0.4-0.3,0-0.6C31,487.8,32,488.1,31.8,488.6 M33.5,531.5c0,27.1,0.1,44.6,0.3,47.1
		c1.7,22.1,8.2,42.3,18.7,57.9c2.1,3.1,2.1,3.4,0,0.6c-11.5-15.8-18.8-38.9-19.9-62.7c-0.3-6.8-0.4-85.4-0.1-85.8
		C33.5,487.6,33.5,487.5,33.5,531.5 M150.3,522.9c0,4-0.1,0.7-0.1-7.2c0-7.9,0-11.2,0.1-7.2C150.3,512.5,150.3,518.9,150.3,522.9
		 M150,544.2c0,2.7-0.1,0.6-0.1-4.7c0-5.2,0-7.4,0.1-4.8C150,537.3,150,541.6,150,544.2 M149.2,550.1c0,0.2-0.7,0.5-1.6,0.8
		c-5.4,1.8-9,7-8.4,12.4c0.2,1.4,0.1,1.5-0.2,0.5c-1.6-4.6,2.8-11.5,8.5-13.4C149.3,549.7,149.2,549.8,149.2,550.1 M153.6,550.3
		c2.3,1.2,3.6,4.2,3.8,9c0.2,3.5,0.1,3.6-1.3,3.2c-0.5-0.1-0.6-0.4-0.6-2.6c0-4.4-1.4-7.6-3.7-8.7c-0.6-0.3-1.2-0.7-1.2-0.9
		C150.7,549.7,152.6,549.7,153.6,550.3 M151.9,551.8c5.4,3.8,3.4,17.1-2.9,19c-2.6,0.8-4.9,0.1-2.7-0.8c2.3-0.9,4.6-5,5-8.7
		c0.5-4-0.1-7.2-1.6-9.3C149,551.1,150.7,551,151.9,551.8 M149.4,553c4.2,6.4-2.1,20.8-7,15.9c-4.6-4.6-2.8-13.5,3.2-16.6
		C147.9,551.3,148.4,551.4,149.4,553 M213.5,558.6c-3.9,68.5-54.3,120.5-106.3,109.7c-30.3-6.3-54.1-34-61.7-71.8
		c-2-10-3.3-25.7-2.1-25.7c0.3,0,21.3-1.2,46.8-2.7c52.6-3,48.3-2.8,48.5-2.1c3.7,11,16,10.2,18.9-1.2c0.2-0.9,0.6-1.6,0.8-1.6
		c7.2-1.5,55.1-10.6,55.2-10.4C213.8,552.9,213.7,555.5,213.5,558.6 M157.2,563.4c0.1,0.1,0,0.7-0.2,1.5
		c-2.1,7.9-10.1,11.1-14.8,5.9c-1.3-1.4-2.7-4.2-2.7-5.1c0-0.3,0.3,0.2,0.7,1c3.6,7.9,13.2,6.1,15.1-2.8
		C155.4,562.9,156.4,562.7,157.2,563.4 M36.6,570.4l1.8,0.4l0.2,5.3C40,615,59,650.1,86,664c3.9,2,3.5,2.2-0.7,0.3
		c-29.7-13.4-49.2-47.7-51.2-90c-0.2-3.7-0.1-4.4,0.2-4.4C34.6,570,35.6,570.2,36.6,570.4 M42.2,573c0.1,1.2,0.2,3.9,0.3,6
		c0.7,15.7,5.6,34.4,12.7,47.6c23.6,44.7,71.2,57,110.4,28.5c1-0.7,1.7-1.1,1.6-1c-2,3.2-19.1,12.1-28.4,14.7
		c-51.1,14.5-97.3-28.5-99.6-92.9l-0.2-5.1h1.5H42L42.2,573"/>
	<path id="path3" class="st2" d="M60.7,124.9c0.4,0.1,0.9,0.1,1.2,0c0.3-0.1,0-0.1-0.7-0.1C60.6,124.8,60.3,124.8,60.7,124.9
		 M44.7,127.6l-1,1.1L44.7,127.6c1.1-0.9,1.3-1.1,1.1-1.1C45.8,126.5,45.3,127,44.7,127.6 M151.1,144.1c0,6.2,0,8.8,0.1,5.7
		c0-3,0-8.1,0-11.3C151.1,135.4,151.1,137.9,151.1,144.1 M6.6,154.4l-0.9,1L6.6,154.4c1-0.7,1.2-1,1-1
		C7.5,153.5,7.1,153.9,6.6,154.4 M150.2,162.7c0,4,0,5.6,0.1,3.6c0.1-2,0.1-5.3,0-7.3C150.2,157,150.2,158.7,150.2,162.7
		 M151.1,162.7c0,4,0,5.6,0.1,3.6c0.1-2,0.1-5.3,0-7.3C151.1,157,151.1,158.7,151.1,162.7 M31.2,170.4c0,7.8,0,10.9,0.1,7
		s0-10.2,0-14.1C31.3,159.5,31.2,162.6,31.2,170.4 M151.1,177.1c0,3.9,0,5.5,0.1,3.5c0.1-2,0.1-5.2,0-7.1
		C151.1,171.5,151.1,173.1,151.1,177.1 M2.2,176.6c0,2.7,0,3.8,0.1,2.4c0.1-1.3,0.1-3.5,0-4.9C2.2,172.8,2.2,173.9,2.2,176.6
		 M150.8,191.4c0,4,0,5.6,0.1,3.6c0.1-2,0.1-5.3,0-7.3C150.8,185.8,150.8,187.5,150.8,191.4 M0.4,195.9c0,4.5,0,6.3,0.1,4.1
		c0.1-2.2,0.1-5.9,0-8.2C0.4,189.6,0.4,191.4,0.4,195.9 M33.6,204.1c0,7.8,0,11,0.1,7c0-4,0-10.4,0-14.2
		C33.7,193,33.6,196.2,33.6,204.1 M216.6,198.9c0,2.2,0,3.1,0.1,2c0.1-1.1,0.1-2.9,0-4C216.7,195.8,216.6,196.7,216.6,198.9
		 M215.5,200.1c0,2.2,0,3.1,0.1,2c0.1-1.1,0.1-2.9,0-4C215.5,196.9,215.5,197.8,215.5,200.1 M1.6,205.4c0,4.5,0,6.3,0.1,4.1
		c0.1-2.2,0.1-5.9,0-8.2C1.6,199.1,1.6,200.9,1.6,205.4 M150.8,205.8c0,3.9,0,5.5,0.1,3.5c0.1-2,0.1-5.2,0-7.1
		C150.8,200.3,150.8,201.9,150.8,205.8 M151.7,206c0,4,0,5.6,0.1,3.6c0.1-2,0.1-5.3,0-7.3C151.7,200.4,151.7,202,151.7,206
		 M42.5,220.8c0,10.5,0,14.8,0.1,9.6c0-5.3,0-13.9,0-19.1C42.6,206,42.5,210.3,42.5,220.8 M150.8,227.6c0,7.9,0,11.2,0.1,7.2
		c0-4,0-10.4,0-14.4C150.8,216.5,150.8,219.7,150.8,227.6 M-0.2,227.6c0,4.5,0,6.3,0.1,4.1c0.1-2.2,0.1-5.9,0-8.2
		C-0.2,221.3-0.2,223.2-0.2,227.6 M38.7,252c0,9.1,0,12.8,0.1,8.2c0-4.5,0-11.9,0-16.5C38.7,239.2,38.7,242.9,38.7,252 M150.8,256.4
		c0,7.9,0,11.2,0.1,7.2c0-4,0-10.4,0-14.4C150.8,245.3,150.8,248.5,150.8,256.4 M33,260.6c0,7.8,0,10.9,0.1,7c0-3.9,0-10.2,0-14.1
		C33.1,249.7,33,252.8,33,260.6 M216.3,261.5c0,2.2,0,3.1,0.1,2s0.1-2.9,0-4S216.3,259.3,216.3,261.5 M215.2,262.9
		c0,2.2,0,3.1,0.1,2c0.1-1.1,0.1-2.9,0-4C215.2,259.8,215.2,260.7,215.2,262.9 M149.9,277.9c0,4.1,0,5.8,0.1,3.8
		c0.1-2,0.1-5.3,0-7.4C149.9,272.2,149.9,273.8,149.9,277.9 M150.8,285.2c0,7.9,0,11.2,0.1,7.2c0-4,0-10.4,0-14.4
		C150.8,274,150.8,277.3,150.8,285.2 M41.9,297.2c0,10.6,0,14.9,0.1,9.5c0-5.4,0-14,0-19.3C42,282.2,41.9,286.6,41.9,297.2
		 M150.5,314c0,7.9,0,11.2,0.1,7.2c0-4,0-10.4,0-14.4S150.5,306.1,150.5,314 M38.1,316.8c0,9,0,12.7,0.1,8.3c0-4.4,0-11.8,0-16.3
		C38.1,304.2,38.1,307.8,38.1,316.8 M151.4,321.1c0,4,0,5.6,0.1,3.6s0.1-5.3,0-7.3C151.4,315.5,151.4,317.1,151.4,321.1 M216,324.4
		c0,2.2,0,3.1,0.1,2c0.1-1.1,0.1-2.9,0-4C216.1,321.3,216,322.2,216,324.4 M214.9,325.5c0,2.2,0,3.1,0.1,2c0.1-1.1,0.1-2.9,0-4
		C214.9,322.4,214.9,323.3,214.9,325.5 M32.1,335.8c0,7.7,0,10.8,0.1,7.1c0-3.8,0-10.1,0-13.9S32.1,328.1,32.1,335.8 M150.5,342.7
		c0,7.9,0,11.2,0.1,7.2c0-4,0-10.4,0-14.4C150.5,331.6,150.5,334.8,150.5,342.7 M-28.4,347.3c0,0.7,0.1,0.9,0.1,0.5
		c0.1-0.4,0.1-0.9,0-1.2C-28.4,346.4-28.5,346.7-28.4,347.3 M150.5,371.5c0,7.9,0,11.2,0.1,7.2c0-4,0-10.4,0-14.4
		S150.5,363.6,150.5,371.5 M31.5,391c0,7.7,0,10.8,0.1,7.1c0-3.8,0-10.1,0-13.9S31.5,383.3,31.5,391 M215.7,387c0,2.2,0,3.1,0.1,2
		c0.1-1.1,0.1-2.9,0-4C215.8,383.8,215.7,384.7,215.7,387 M214.6,388.4c0,2.2,0,3.1,0.1,2c0.1-1.1,0.1-2.9,0-4
		C214.6,385.3,214.6,386.2,214.6,388.4 M149.6,393.2c0,4,0,5.6,0.1,3.6c0.1-2,0.1-5.3,0-7.3C149.6,387.5,149.6,389.2,149.6,393.2
		 M150.5,400.3c0,7.9,0,11.2,0.1,7.2s0-10.4,0-14.4C150.5,389.2,150.5,392.4,150.5,400.3 M-29.3,400.2c0,3.1,0,4.3,0.1,2.7
		c0.1-1.6,0.1-4.1,0-5.6C-29.2,395.7-29.3,397.1-29.3,400.2 M33.9,428.9c0,7.8,0,11,0.1,7c0-4,0-10.4,0-14.2S33.9,421.1,33.9,428.9
		 M150.2,429.1c0,7.9,0,11.2,0.1,7.2c0-4,0-10.4,0-14.4C150.2,417.9,150.2,421.2,150.2,429.1 M-28.1,430.6c0,3.2,0,4.5,0.1,2.9
		c0.1-1.6,0.1-4.2,0-5.8C-28.1,426.1-28.1,427.4-28.1,430.6 M151.1,436.5c0,4,0,5.6,0.1,3.6c0.1-2,0.1-5.3,0-7.3
		C151.1,430.9,151.1,432.5,151.1,436.5 M150.2,450.9c0,3.9,0,5.5,0.1,3.5c0.1-2,0.1-5.2,0-7.1C150.2,445.3,150.2,447,150.2,450.9
		 M215.5,449.5c0,2.2,0,3.1,0.1,2c0.1-1.1,0.1-2.9,0-4C215.5,446.4,215.5,447.3,215.5,449.5 M214.3,451c0,2.2,0,3.1,0.1,2
		c0.1-1.1,0.1-2.9,0-4C214.3,447.9,214.3,448.8,214.3,451 M150.2,465.3c0,4,0,5.6,0.1,3.6c0.1-2,0.1-5.3,0-7.3
		C150.2,459.6,150.2,461.3,150.2,465.3 M150.2,479.7c0,3.9,0,5.5,0.1,3.5c0.1-2,0.1-5.2,0-7.1C150.2,474.1,150.2,475.7,150.2,479.7
		 M33.3,480.3c0,3.8,0,5.2,0.1,3.3c0.1-1.9,0.1-5,0-6.8C33.4,474.9,33.3,476.5,33.3,480.3 M-29,487.7c0,3.1,0,4.3,0.1,2.7
		c0.1-1.6,0.1-4.1,0-5.6C-29,483.3-29,484.6-29,487.7 M150.2,494c0,4,0,5.6,0.1,3.6c0.1-2,0.1-5.3,0-7.3
		C150.2,488.4,150.2,490.1,150.2,494 M33.3,493.9c0,3.1,0,4.3,0.1,2.7c0.1-1.6,0.1-4.1,0-5.6C33.3,489.5,33.3,490.8,33.3,493.9
		 M39,510.8c0,9,0,12.7,0.1,8.3c0-4.4,0-11.8,0-16.3C39,498.2,39,501.8,39,510.8 M149.3,508.4c0,4.1,0,5.8,0.1,3.8
		c0.1-2,0.1-5.3,0-7.4C149.3,502.7,149.3,504.4,149.3,508.4 M150.2,515.7c0,7.9,0,11.2,0.1,7.2c0-4,0-10.4,0-14.4
		C150.2,504.6,150.2,507.8,150.2,515.7 M42.8,525.3c0,10.6,0,14.9,0.1,9.5c0-5.4,0-14,0-19.3C42.9,510.4,42.8,514.7,42.8,525.3
		 M215.2,512.3c0,2.3,0,3.2,0.1,2c0.1-1.2,0.1-3.1,0-4.2C215.2,509,215.2,510,215.2,512.3 M214,513.9c0,2.2,0,3.1,0.1,2
		c0.1-1.1,0.1-2.9,0-4C214,510.8,214,511.7,214,513.9 M-27.8,518.2c0,3.1,0,4.3,0.1,2.7c0.1-1.6,0.1-4.1,0-5.6
		C-27.8,513.8-27.8,515.1-27.8,518.2 M149.9,539.6c0,5.2,0,7.3,0.1,4.7c0-2.7,0-6.9,0-9.5C149.9,532.2,149.9,534.4,149.9,539.6
		 M150.8,546.7c0,1.3,0.1,1.8,0.1,1.1c0.1-0.7,0.1-1.8,0-2.4C150.8,544.8,150.8,545.4,150.8,546.7 M32.4,558.9c0,6.5,0,9.2,0.1,5.8
		c0-3.3,0-8.7,0-11.9C32.5,549.6,32.4,552.3,32.4,558.9 M139.6,558c-0.1,0.4-0.3,1-0.4,1.3c-0.1,0.3-0.1,0.4,0.1,0.3
		c0.4-0.3,1-2.3,0.7-2.3C139.9,557.2,139.7,557.6,139.6,558 M158.2,560.1c0,0.8,0.1,1.1,0.1,0.7c0.1-0.5,0.1-1.1,0-1.5
		C158.2,558.9,158.2,559.2,158.2,560.1 M38.3,564.7c0,3,0,4.3,0.1,2.7c0.1-1.5,0.1-4,0-5.5C38.4,560.4,38.3,561.6,38.3,564.7
		 M38.3,571.9c0,0.7,0.1,0.9,0.1,0.5c0.1-0.4,0.1-0.9,0-1.2C38.4,571,38.3,571.3,38.3,571.9 M42.2,573.9c0,0.6,0.1,0.8,0.1,0.5
		c0.1-0.3,0.1-0.8,0-1C42.2,573,42.2,573.3,42.2,573.9 M147.2,574.1c0.3,0.1,0.8,0.1,1,0c0.3-0.1,0.1-0.1-0.5-0.1
		C147.1,573.9,146.9,574,147.2,574.1 M-3.6,622.6c0,0.1,0.4,0.5,1,1l1,0.9l-0.9-1C-3.4,622.6-3.6,622.4-3.6,622.6 M-2,625.5
		c0.6,0.7,1.2,1.2,1.3,1.2c0.1,0-0.4-0.5-1-1.2c-0.6-0.7-1.2-1.2-1.3-1.2C-3.1,624.3-2.6,624.8-2,625.5 M-0.3,625.9
		c0,0.1,0.4,0.5,1,1l1,0.9l-0.9-1C-0.1,625.8-0.3,625.6-0.3,625.9 M180.2,643.3l-0.9,1L180.2,643.3c0.6-0.4,1.1-0.8,1.1-0.9
		C181.2,642.2,181,642.4,180.2,643.3 M71.5,649.4c0.9,0.9,1.7,1.6,1.8,1.6c0.1,0-0.6-0.7-1.5-1.6c-0.9-0.9-1.7-1.6-1.8-1.6
		C69.9,647.7,70.6,648.5,71.5,649.4 M64.9,650.5c0,0.1,0.4,0.5,1,1l1,0.9l-0.9-1C65.2,650.5,64.9,650.3,64.9,650.5 M166.2,654.7
		c-0.6,0.5-0.7,0.6-0.3,0.5c0.6-0.3,1.6-1.2,1.3-1.2C167.2,654,166.7,654.3,166.2,654.7"/>
	<path id="path4" class="st3" d="M51.1,120.8c0.4,0.1,1.2,0.1,1.6,0c0.4-0.1,0.1-0.1-0.8-0.1C51,120.6,50.6,120.7,51.1,120.8
		 M57.9,121.1c0.4,0.1,1.2,0.1,1.6,0c0.4-0.1,0.1-0.1-0.8-0.1C57.8,120.9,57.4,121,57.9,121.1 M63.2,121.3c0.3,0.1,0.8,0.1,1,0
		c0.3-0.1,0.1-0.1-0.5-0.1C63.2,121.2,62.9,121.3,63.2,121.3 M50.4,121.6c1.1,0.2,4.1,0.3,4,0.1c-0.1-0.1-1.1-0.2-2.3-0.2
		C50.9,121.5,50.1,121.5,50.4,121.6 M60,121.9c0.4,0.1,1.2,0.1,1.6,0c0.4-0.1,0.1-0.1-0.8-0.1C59.9,121.8,59.5,121.9,60,121.9
		 M70.3,122.8c0.3,0.1,0.8,0.1,1,0c0.3-0.1,0.1-0.1-0.5-0.1C70.3,122.7,70.1,122.8,70.3,122.8 M83.1,123.1c0.3,0.1,0.8,0.1,1,0
		c0.3-0.1,0.1-0.1-0.5-0.1C83,123,82.8,123,83.1,123.1 M90.2,124.6c0.3,0.1,0.8,0.1,1,0c0.3-0.1,0.1-0.1-0.5-0.1
		C90.2,124.5,89.9,124.5,90.2,124.6 M38.1,126l-1.2,1.3L38.1,126c1.3-1,1.5-1.3,1.3-1.3C39.3,124.7,38.7,125.3,38.1,126 M64.1,125.2
		c0.3,0.1,0.8,0.1,1,0c0.3-0.1,0.1-0.1-0.5-0.1C64.1,125.1,63.8,125.1,64.1,125.2 M40.3,126.4l-1,1.1L40.3,126.4
		c1.1-0.9,1.3-1.1,1.1-1.1C41.3,125.3,40.8,125.8,40.3,126.4 M38.7,126.6c-0.6,0.6-0.7,0.8-0.3,0.5c0.6-0.3,1.5-1.2,1.3-1.3
		C39.6,125.8,39.2,126.1,38.7,126.6 M83.7,126.1c0.3,0.1,0.8,0.1,1,0c0.3-0.1,0.1-0.1-0.5-0.1C83.6,126,83.4,126,83.7,126.1
		 M77.5,126.4c0.3,0.1,0.8,0.1,1,0c0.3-0.1,0.1-0.1-0.5-0.1C77.4,126.3,77.2,126.3,77.5,126.4 M110.1,126.4c0.3,0.1,0.8,0.1,1,0
		c0.3-0.1,0.1-0.1-0.5-0.1C110,126.3,109.8,126.3,110.1,126.4 M97,127.3c0.3,0.1,0.8,0.1,1,0c0.3-0.1,0.1-0.1-0.5-0.1
		C97,127.1,96.8,127.2,97,127.3 M130,128.2c0.3,0.1,0.8,0.1,1,0c0.3-0.1,0.1-0.1-0.5-0.1C129.9,128,129.7,128.1,130,128.2
		 M36.9,128.6c-0.1,0.2-0.1,0.3,0,0.3c0.1,0,0,0.2-0.3,0.4c-0.4,0.3-0.5,0.5-0.2,0.6c0.2,0.2,0.3,0.1,0.2-0.1
		c-0.1-0.2,0-0.4,0.2-0.4c0.2-0.1,0.4-0.3,0.4-0.6C37.3,128.2,37.2,128.1,36.9,128.6 M100.9,128.5c0.3,0.1,0.8,0.1,1,0
		c0.3-0.1,0.1-0.1-0.5-0.1C100.8,128.3,100.6,128.4,100.9,128.5 M48.3,130.3l-1,1.1L48.3,130.3c1.1-0.9,1.3-1.1,1.1-1.1
		C49.4,129.1,48.9,129.7,48.3,130.3 M120.5,129.4c0.3,0.1,0.8,0.1,1,0c0.3-0.1,0.1-0.1-0.5-0.1C120.4,129.2,120.2,129.3,120.5,129.4
		 M114.2,129.7c0.3,0.1,0.8,0.1,1,0c0.3-0.1,0.1-0.1-0.5-0.1C114.2,129.5,114,129.6,114.2,129.7 M133.8,130.5c0.3,0.1,0.8,0.1,1,0
		c0.3-0.1,0.1-0.1-0.5-0.1C133.8,130.4,133.5,130.5,133.8,130.5 M137.7,131.7c0.3,0.1,0.8,0.1,1,0c0.3-0.1,0.1-0.1-0.5-0.1
		C137.6,131.6,137.4,131.7,137.7,131.7 M150.2,144.1c0,6.4,0,8.9,0.1,5.7c0-3.2,0-8.4,0-11.6C150.2,135.1,150.2,137.8,150.2,144.1
		 M152,144.1c0,6.2,0,8.8,0.1,5.7c0-3,0-8.1,0-11.3C152,135.4,152,137.9,152,144.1 M209.7,138.8c0.6,0.6,1.1,1,1.2,1
		c0.1,0-0.3-0.5-0.9-1s-1.1-1-1.2-1C208.8,137.8,209.1,138.2,209.7,138.8 M211.7,142.9c0.3,0.4,0.5,0.7,0.6,0.7c0.1,0,0-0.3-0.2-0.7
		c-0.2-0.4-0.5-0.7-0.6-0.7S211.4,142.5,211.7,142.9 M33.5,143.4c0,0.6,0.1,0.8,0.1,0.5c0.1-0.3,0.1-0.8,0-1
		C33.6,142.6,33.5,142.8,33.5,143.4 M38.6,143.5c0,0.5,0.2,0.9,0.5,1c0.3,0.1,0.3,0,0.1-0.1c-0.2-0.1-0.4-0.6-0.5-1
		C38.6,142.8,38.6,142.8,38.6,143.5 M32.7,152.6c0,5.3,0,7.5,0.1,4.8c0-2.7,0-7,0-9.6C32.8,145.1,32.7,147.3,32.7,152.6 M42.5,172.5
		c0,16.2,0,22.9,0.1,14.8c0-8.1,0-21.4,0-29.5C42.6,149.6,42.5,156.2,42.5,172.5 M37.6,143.8c0,0.2-0.3,0.5-0.7,0.6
		c-0.6,0.1-0.6,0.1,0.1,0.2c0.6,0,0.8-0.1,0.8-0.6c0-0.3-0.1-0.6-0.1-0.6C37.7,143.4,37.6,143.6,37.6,143.8 M33.6,145.2
		c-0.1,0.2-0.1,10.4-0.1,22.6l0.1,22.2l0.1-22.5c0.1-21.1,0.1-22.5,0.6-22.6c0.5-0.1,0.5-0.1,0-0.2C34,144.9,33.7,145,33.6,145.2
		 M37.3,145.4c0.3,0.2,0.4,6.5,0.4,29.3l0.1,29.1l0.1-29.3c0.1-27.7,0-29.3-0.4-29.3C37,145.2,37,145.2,37.3,145.4 M38.6,190.5
		c0,24.9,0.1,38,0.1,29c0.2-43.3,0.2-74.3,0-74.3C38.6,145.2,38.6,165.6,38.6,190.5 M41.6,154.5c0,5.2,0,7.3,0.1,4.7
		c0-2.7,0-6.9,0-9.5C41.7,147.1,41.6,149.3,41.6,154.5 M215.4,156.7c0,0.6,0.1,0.8,0.1,0.5c0.1-0.3,0.1-0.8,0-1
		C215.5,155.9,215.4,156.2,215.4,156.7 M216.9,164.6c0,3.8,0,5.2,0.1,3.3c0.1-1.9,0.1-5,0-6.8C217,159.3,216.9,160.8,216.9,164.6
		 M215.5,180.6c0,8.6,0,12.1,0.1,7.8c0-4.4,0-11.5,0-15.7C215.5,168.4,215.5,172,215.5,180.6 M-0.6,171.6c0,0.6,0.1,0.8,0.1,0.5
		c0.1-0.3,0.1-0.8,0-1C-0.5,170.8-0.6,171-0.6,171.6 M0.4,180c0,4.4,0,6.2,0.1,4.1c0.1-2.2,0.1-5.8,0-8C0.4,173.9,0.4,175.6,0.4,180
		 M31.3,239.4c0,30.3,0,42.8,0.1,27.7c0-15.1,0-40,0-55.2S31.3,209,31.3,239.4 M216.7,218.3c0,8.6,0,12.1,0.1,7.8
		c0-4.4,0-11.5,0-15.7C216.7,206.1,216.7,209.6,216.7,218.3 M32.1,266.8c0,30.4,0,42.9,0.1,27.7c0-15.2,0-40.1,0-55.3
		C32.2,223.9,32.1,236.4,32.1,266.8 M151.7,241.9c0,15.9,0,22.4,0.1,14.5c0-8,0-21,0-28.9C151.7,219.5,151.7,226,151.7,241.9
		 M1.4,228.8c0,14.4,0,15.4-0.5,15.5c-0.4,0.1-0.4,0.1,0.1,0.2l0.7,0V229c0-8.6-0.1-15.6-0.1-15.6C1.5,213.4,1.4,220.3,1.4,228.8
		 M149.9,242c0,15.8,0,22.3,0.1,14.3c0-8,0-20.9,0-28.8C150,219.7,149.9,226.2,149.9,242 M215.2,243.4c0,8.7,0,12.3,0.1,7.9
		c0-4.4,0-11.5,0-15.9C215.2,231.1,215.2,234.6,215.2,243.4 M2.5,238.9c0,5.5,0,7.7,0.1,5c0-2.7,0-7.2,0-9.9
		C2.5,231.2,2.5,233.4,2.5,238.9 M-0.2,240.3c0,2.6,0,3.6,0.1,2.3c0.1-1.4,0.1-3.5,0-4.7C-0.2,236.5-0.2,237.6-0.2,240.3
		 M-0.2,247.7c0,1.5,0,2.1,0.1,1.4c0.1-0.7,0.1-1.9,0-2.7S-0.2,246.2-0.2,247.7 M0.6,246.5l0.1,1.4l0.1-1.3c0.2-2.1,0.6-1.4,0.8,1.3
		l0.1,2.5l0-2.6c0-2.2-0.1-2.6-0.5-2.7C0.6,245.1,0.6,245.3,0.6,246.5 M0.3,255.2c0,0.9,0.1,1.3,0.1,0.8c0.1-0.4,0.1-1.2,0-1.6
		C0.4,254,0.3,254.3,0.3,255.2 M2.1,255.2c0,0.9,0.1,1.3,0.1,0.8c0.1-0.4,0.1-1.2,0-1.6C2.2,254,2.1,254.3,2.1,255.2 M-0.6,256
		c0,0.8,0.1,1.1,0.1,0.7c0.1-0.5,0.1-1.1,0-1.5C-0.5,254.8-0.6,255.2-0.6,256 M1.2,256c0,0.8,0.1,1.1,0.1,0.7c0.1-0.5,0.1-1.1,0-1.5
		C1.3,254.8,1.2,255.2,1.2,256 M0,260c0,0.6,0.1,0.8,0.1,0.5c0.1-0.3,0.1-0.8,0-1C0.1,259.2,0,259.4,0,260 M1.8,260.1
		c0,0.7,0.1,0.9,0.1,0.5c0.1-0.4,0.1-0.9,0-1.2C1.9,259.2,1.8,259.5,1.8,260.1 M-0.9,260.6c0,0.6,0.1,0.8,0.1,0.5
		c0.1-0.3,0.1-0.8,0-1C-0.8,259.8-0.9,260-0.9,260.6 M0.9,260.9c0,0.6,0.1,0.8,0.1,0.5c0.1-0.3,0.1-0.8,0-1
		C1,260.1,0.9,260.3,0.9,260.9 M0.6,264.4c0,0.6,0.1,0.8,0.1,0.5c0.1-0.3,0.1-0.8,0-1C0.7,263.6,0.6,263.9,0.6,264.4 M216.4,281
		c0,8.7,0,12.3,0.1,7.9c0-4.4,0-11.5,0-15.9C216.4,268.7,216.4,272.3,216.4,281 M33,330.7c0,31,0,43.6,0.1,28.1s0-40.9,0-56.4
		C33.1,287,33,299.7,33,330.7 M214.9,306.1c0,8.6,0,12.1,0.1,7.8c0-4.4,0-11.5,0-15.7C214.9,293.9,214.9,297.5,214.9,306.1
		 M33.9,358.8c0,30.9,0,43.6,0.1,28.1c0-15.5,0-40.8,0-56.2C34,315.2,33.9,327.8,33.9,358.8 M41.9,392.3c0,41.9,0,59,0.1,38
		s0-55.2,0-76.1C42,333.3,41.9,350.4,41.9,392.3 M151.4,357c0,15.9,0,22.4,0.1,14.5c0-8,0-21,0-28.9
		C151.4,334.6,151.4,341.1,151.4,357 M216.1,343.8c0,8.6,0,12.1,0.1,7.8c0-4.4,0-11.5,0-15.7C216.1,331.6,216.1,335.1,216.1,343.8
		 M149.6,357.3c0,15.9,0,22.4,0.1,14.5c0-8,0-21,0-28.9C149.7,334.9,149.6,341.4,149.6,357.3 M38.1,397.6c0,35.7,0,50.2,0.1,32.4
		c0-17.8,0-47,0-64.8C38.1,347.4,38.1,362,38.1,397.6 M-29.6,353.1c0,4.8,0,6.8,0.1,4.4c0.1-2.4,0.1-6.3,0-8.8
		C-29.5,346.3-29.6,348.3-29.6,353.1 M214.6,368.9c0,8.7,0,12.3,0.1,7.9c0-4.4,0-11.5,0-15.9C214.6,356.6,214.6,360.1,214.6,368.9
		 M42.8,430.1c0,41.9,0,59.1,0.1,38.2c0-20.9,0-55.2,0-76.2C42.9,371.1,42.8,388.2,42.8,430.1 M39,430c0,35.7,0,50.2,0.1,32.4
		c0-17.8,0-47,0-64.8C39,379.7,39,394.3,39,430 M-28.1,403.1c0,12.1,0,17,0.1,10.9c0-6.1,0-16,0-22C-28,386.1-28.1,391-28.1,403.1
		 M215.8,406.4c0,8.6,0,12.1,0.1,7.8c0-4.4,0-11.5,0-15.7C215.8,394.2,215.8,397.7,215.8,406.4 M31.5,438.1c0,18.4,0,25.9,0.1,16.7
		c0-9.3,0-24.4,0-33.5C31.6,412.1,31.5,419.7,31.5,438.1 M-29.3,427.4c0,12.1,0,17,0.1,10.9c0-6.1,0-16,0-22
		C-29.2,410.4-29.3,415.4-29.3,427.4 M214.3,431.6c0,8.6,0,12.1,0.1,7.8c0-4.4,0-11.5,0-15.7C214.3,419.4,214.3,423,214.3,431.6
		 M32.4,452.5c0,11.2,0,15.7,0.1,10.2c0-5.6,0-14.7,0-20.3C32.5,436.8,32.4,441.3,32.4,452.5 M151.1,472.4c0,15.9,0,22.4,0.1,14.5
		c0-8,0-21,0-28.9C151.1,450,151.1,456.5,151.1,472.4 M149.3,472.5c0,15.8,0,22.3,0.1,14.3c0-8,0-20.9,0-28.8
		C149.4,450.2,149.3,456.7,149.3,472.5 M215.5,469c0,8.6,0,12.1,0.1,7.8c0-4.4,0-11.5,0-15.7C215.5,456.8,215.5,460.3,215.5,469
		 M-27.8,490.9c0,12.1,0,17,0.1,10.9c0-6.1,0-16,0-22C-27.8,473.9-27.8,478.9-27.8,490.9 M29.1,471.4c0.5,0.1,1.1,0.1,1.5,0
		c0.4-0.1,0-0.1-0.8-0.1C29,471.3,28.7,471.3,29.1,471.4 M30.5,472.4c0,0.2,0.3,0.3,0.6,0.2c0.3,0,0.5-0.1,0.4-0.3
		C31.3,472,30.5,472,30.5,472.4 M25.9,479.7c0,1.1,0.1,1.6,0.1,1s0.1-1.6,0-2.1C25.9,478,25.9,478.5,25.9,479.7 M26.8,479.7
		c0,1.1,0.1,1.6,0.1,1c0.1-0.6,0.1-1.6,0-2.1C26.8,478,26.8,478.5,26.8,479.7 M25,479.7c0,1,0.1,1.3,0.1,0.8c0.1-0.5,0.1-1.3,0-1.8
		C25,478.2,25,478.7,25,479.7 M214,494.3c0,8.7,0,12.3,0.1,7.9c0-4.4,0-11.5,0-15.9C214,482,214,485.6,214,494.3 M32.4,488.8
		c-0.1,0.2-0.1,13.5-0.1,29.4l0.1,29.1l0.1-29.4c0.1-16.2,0.1-29.4,0.1-29.4C32.6,488.4,32.5,488.6,32.4,488.8 M31.3,498.4
		c0,4.9,0.1,11,0.2,13.7c0,2.7,0.1-1.3,0.1-8.8c0-7.5,0-13.7-0.2-13.7C31.4,489.6,31.3,493.6,31.3,498.4 M-29,515
		c0,12.1,0,17,0.1,10.9c0-6.1,0-16,0-22C-28.9,497.9-29,502.9-29,515 M33.3,536.3c0,20.4,0,28.7,0.1,18.4c0-10.3,0-26.9,0-37.1
		C33.4,507.5,33.3,515.9,33.3,536.3 M215.2,531.9c0,8.6,0,12.1,0.1,7.8c0-4.4,0-11.5,0-15.7C215.2,519.6,215.2,523.2,215.2,531.9
		 M34.2,548.2c0,18.4,0.1,21.1,0.4,21.2c0.3,0.1,0.3,0.1,0.1-0.1c-0.3-0.2-0.4-4.9-0.4-21.2l-0.1-20.9L34.2,548.2 M213.7,546.7
		c0,2.9,0,4.1,0.1,2.6c0.1-1.5,0.1-3.9,0-5.3C213.7,542.5,213.7,543.8,213.7,546.7 M141.7,553l-1,1.1L141.7,553
		c1.1-0.9,1.3-1.1,1.1-1.1C142.8,551.9,142.3,552.4,141.7,553 M142.2,553.8c-0.6,0.7-1.2,1.5-1.4,1.9c-0.2,0.3,0,0.2,0.4-0.3
		c0.4-0.5,1.1-1.3,1.7-1.9c0.6-0.5,0.9-1,0.7-1C143.4,552.5,142.8,553.1,142.2,553.8 M142.9,554.5l-1,1.1L142.9,554.5
		c1.1-0.9,1.3-1.1,1.1-1.1C144,553.4,143.5,553.9,142.9,554.5 M214.8,558.3c0,0.8,0.1,1.1,0.1,0.7c0.1-0.5,0.1-1.1,0-1.5
		C214.9,557.1,214.8,557.5,214.8,558.3 M213.3,559.6c0,0.7,0.1,1,0.1,0.7c0.1-0.4,0.1-1,0-1.3C213.4,558.6,213.3,558.9,213.3,559.6
		 M-28.7,560.5c0,0.9,0.1,1.3,0.1,0.8c0.1-0.4,0.1-1.2,0-1.6C-28.7,559.2-28.7,559.6-28.7,560.5 M-27.3,563c0,0.7,0.1,0.9,0.1,0.5
		c0.1-0.4,0.1-0.9,0-1.2C-27.2,562.1-27.3,562.4-27.3,563 M214.5,562.9c0,0.6,0.1,0.8,0.1,0.5c0.1-0.3,0.1-0.8,0-1
		C214.6,562.1,214.5,562.3,214.5,562.9 M213,563.8c0,0.6,0.1,0.8,0.1,0.5c0.1-0.3,0.1-0.8,0-1C213.1,563,213,563.2,213,563.8
		 M135.8,564.9c0.4,0.1,1,0.1,1.3,0c0.4-0.1,0.1-0.1-0.7-0.1S135.4,564.8,135.8,564.9 M130.7,565.2c0.4,0.1,1,0.1,1.3,0
		c0.4-0.1,0.1-0.1-0.7-0.1C130.6,565,130.3,565.1,130.7,565.2 M125.4,565.5c0.4,0.1,1,0.1,1.3,0c0.4-0.1,0.1-0.1-0.7-0.1
		C125.3,565.3,125,565.4,125.4,565.5 M120.3,565.8c0.4,0.1,1,0.1,1.3,0c0.4-0.1,0.1-0.1-0.7-0.1C120.3,565.6,120,565.7,120.3,565.8
		 M135.2,565.8c0.4,0.1,1,0.1,1.3,0c0.4-0.1,0.1-0.1-0.7-0.1C135.1,565.6,134.8,565.7,135.2,565.8 M115.1,566.1
		c0.5,0.1,1.1,0.1,1.5,0c0.4-0.1,0-0.1-0.8-0.1C115,565.9,114.7,566,115.1,566.1 M130.1,566c0.4,0.1,1,0.1,1.3,0
		c0.4-0.1,0.1-0.1-0.7-0.1C130.1,565.9,129.8,566,130.1,566 M109.9,566.3c0.4,0.1,1,0.1,1.3,0c0.4-0.1,0.1-0.1-0.7-0.1
		C109.9,566.2,109.6,566.3,109.9,566.3 M124.9,566.3c0.5,0.1,1.1,0.1,1.5,0c0.4-0.1,0-0.1-0.8-0.1
		C124.8,566.2,124.5,566.3,124.9,566.3 M104.9,566.6c0.4,0.1,1,0.1,1.3,0c0.4-0.1,0.1-0.1-0.7-0.1
		C104.8,566.5,104.5,566.6,104.9,566.6 M119.7,566.6c0.4,0.1,1,0.1,1.3,0c0.4-0.1,0.1-0.1-0.7-0.1
		C119.7,566.5,119.4,566.6,119.7,566.6 M99.6,566.9c0.4,0.1,1,0.1,1.3,0c0.4-0.1,0.1-0.1-0.7-0.1C99.5,566.8,99.2,566.9,99.6,566.9
		 M114.7,566.9c0.4,0.1,1,0.1,1.3,0c0.4-0.1,0.1-0.1-0.7-0.1C114.6,566.8,114.3,566.9,114.7,566.9 M94.5,567.2c0.4,0.1,1,0.1,1.3,0
		c0.4-0.1,0.1-0.1-0.7-0.1C94.5,567.1,94.2,567.2,94.5,567.2 M109.5,567.2c0.5,0.1,1.1,0.1,1.5,0c0.4-0.1,0-0.1-0.8-0.1
		C109.4,567.1,109.1,567.2,109.5,567.2 M89.3,567.5c0.5,0.1,1.1,0.1,1.5,0c0.4-0.1,0-0.1-0.8-0.1C89.2,567.4,88.9,567.5,89.3,567.5
		 M104.3,567.5c0.4,0.1,1,0.1,1.3,0c0.4-0.1,0.1-0.1-0.7-0.1C104.2,567.4,103.9,567.5,104.3,567.5 M84.1,567.8c0.4,0.1,1,0.1,1.3,0
		c0.4-0.1,0.1-0.1-0.7-0.1C84.1,567.7,83.8,567.8,84.1,567.8 M99.3,567.8c0.4,0.1,1,0.1,1.3,0c0.4-0.1,0.1-0.1-0.7-0.1
		C99.2,567.7,98.9,567.8,99.3,567.8 M79.1,568.1c0.4,0.1,1,0.1,1.3,0c0.4-0.1,0.1-0.1-0.7-0.1C79,568,78.7,568.1,79.1,568.1
		 M93.9,568.1c0.4,0.1,1,0.1,1.3,0c0.4-0.1,0.1-0.1-0.7-0.1C93.9,568,93.6,568.1,93.9,568.1 M73.9,568.4c0.5,0.1,1.1,0.1,1.5,0
		c0.4-0.1,0-0.1-0.8-0.1C73.8,568.3,73.5,568.4,73.9,568.4 M88.9,568.4c0.4,0.1,1,0.1,1.3,0c0.4-0.1,0.1-0.1-0.7-0.1
		C88.8,568.3,88.5,568.4,88.9,568.4 M151.4,569.2l-0.9,1L151.4,569.2c0.6-0.4,1.1-0.8,1.1-0.9C152.4,568.1,152.2,568.3,151.4,569.2
		 M68.7,568.7c0.4,0.1,1,0.1,1.3,0c0.4-0.1,0.1-0.1-0.7-0.1C68.6,568.6,68.3,568.6,68.7,568.7 M83.7,568.7c0.5,0.1,1.1,0.1,1.5,0
		c0.4-0.1,0-0.1-0.8-0.1C83.5,568.6,83.2,568.7,83.7,568.7 M63.7,569c0.4,0.1,1,0.1,1.3,0c0.4-0.1,0.1-0.1-0.7-0.1
		C63.6,568.9,63.3,568.9,63.7,569 M78.5,569c0.4,0.1,1,0.1,1.3,0c0.4-0.1,0.1-0.1-0.7-0.1C78.4,568.9,78.1,568.9,78.5,569
		 M58.3,569.3c0.4,0.1,1,0.1,1.3,0c0.4-0.1,0.1-0.1-0.7-0.1C58.3,569.2,58,569.2,58.3,569.3 M73.5,569.3c0.4,0.1,1,0.1,1.3,0
		c0.4-0.1,0.1-0.1-0.7-0.1C73.4,569.2,73.1,569.2,73.5,569.3 M53.3,569.6c0.4,0.1,1,0.1,1.3,0c0.4-0.1,0.1-0.1-0.7-0.1
		S52.9,569.5,53.3,569.6 M68.1,569.6c0.4,0.1,1,0.1,1.3,0c0.4-0.1,0.1-0.1-0.7-0.1C68,569.5,67.7,569.5,68.1,569.6 M48.1,569.9
		c0.5,0.1,1.1,0.1,1.5,0c0.4-0.1,0-0.1-0.8-0.1S47.6,569.8,48.1,569.9 M63.1,569.9c0.4,0.1,1,0.1,1.3,0c0.4-0.1,0.1-0.1-0.7-0.1
		S62.7,569.8,63.1,569.9 M153.5,570.7l-0.9,1L153.5,570.7c0.6-0.4,1.1-0.8,1.1-0.9C154.5,569.6,154.3,569.8,153.5,570.7 M34.1,572.1
		l0.1,2.2l0.1-2c0.1-1.6,0.2-2,0.6-2.1c0.4-0.1,0.3-0.1-0.2-0.2C34.1,570,34.1,570.1,34.1,572.1 M43.3,570.2c0.3,0.1,0.8,0.1,1,0
		c0.3-0.1,0.1-0.1-0.5-0.1C43.3,570.1,43.1,570.1,43.3,570.2 M57.9,570.2c0.5,0.1,1.1,0.1,1.5,0c0.4-0.1,0-0.1-0.8-0.1
		C57.7,570.1,57.4,570.1,57.9,570.2 M52.7,570.5c0.4,0.1,1,0.1,1.3,0c0.4-0.1,0.1-0.1-0.7-0.1C52.6,570.4,52.3,570.4,52.7,570.5
		 M47.6,570.8c0.4,0.1,1,0.1,1.3,0c0.4-0.1,0.1-0.1-0.7-0.1S47.3,570.7,47.6,570.8 M39.8,571.1c0.4,0.1,1.2,0.1,1.6,0
		c0.4-0.1,0.1-0.1-0.8-0.1C39.7,571,39.3,571,39.8,571.1 M146.6,571.1c0.3,0.1,0.8,0.1,1,0c0.3-0.1,0.1-0.1-0.5-0.1
		C146.5,571,146.3,571,146.6,571.1 M38.3,574.9c0,1.1,0.1,1.6,0.1,1c0.1-0.6,0.1-1.5,0-2.1C38.4,573.2,38.3,573.7,38.3,574.9
		 M31.8,575.3c0,0.9,0.1,1.3,0.1,0.8c0.1-0.4,0.1-1.2,0-1.6C31.8,574.1,31.8,574.4,31.8,575.3 M39.2,575.8c0,1,0.1,1.3,0.1,0.8
		c0.1-0.5,0.1-1.3,0-1.8C39.3,574.4,39.2,574.8,39.2,575.8 M32.7,576.1c0,0.8,0.1,1.1,0.1,0.7c0.1-0.5,0.1-1.1,0-1.5
		C32.7,574.9,32.7,575.3,32.7,576.1 M42.2,576.5c0,1.1,0.1,1.5,0.1,1c0.1-0.5,0.1-1.4,0-1.9C42.2,575,42.2,575.5,42.2,576.5
		 M43.1,577.3c0,0.8,0.1,1.1,0.1,0.7c0.1-0.5,0.1-1.1,0-1.5C43.1,576.1,43.1,576.4,43.1,577.3 M33.6,577.9c0,0.7,0.1,0.9,0.1,0.5
		c0.1-0.4,0.1-0.9,0-1.2C33.6,576.9,33.6,577.2,33.6,577.9 M34.4,578.4c0,0.7,0.1,0.9,0.1,0.5c0.1-0.4,0.1-0.9,0-1.2
		C34.5,577.5,34.4,577.8,34.4,578.4 M38.6,580.4c0,0.6,0.1,0.8,0.1,0.5c0.1-0.3,0.1-0.8,0-1C38.7,579.6,38.6,579.8,38.6,580.4
		 M39.5,580.7c0,0.6,0.1,0.8,0.1,0.5c0.1-0.3,0.1-0.8,0-1C39.5,579.9,39.5,580.1,39.5,580.7 M-4.8,622.6c0,0.1,0.4,0.5,1,1l1,0.9
		l-0.9-1C-4.5,622.6-4.8,622.4-4.8,622.6 M-0.6,626.8c0,0.1,0.4,0.5,1,1l1,0.9l-0.9-1C-0.4,626.7-0.6,626.5-0.6,626.8 M51,634.8
		c1.9,2.9,2.2,2.9,0.4,0c-0.8-1.2-1.5-2.2-1.6-2.2C49.6,632.6,50.2,633.6,51,634.8 M177.4,644c-1.2,1.2-2.1,2.2-2.1,2.2
		c0.1,0,1.1-1,2.4-2.2c1.2-1.2,2.1-2.2,2.1-2.2C179.6,641.8,178.6,642.8,177.4,644 M68.2,646c0,0.1,0.4,0.5,1,1l1,0.9l-0.9-1
		C68.4,646,68.2,645.8,68.2,646 M72,648.8c1.5,1.6,2.9,2.8,3,2.8s-1.1-1.3-2.7-2.8c-1.5-1.6-2.9-2.8-3-2.8
		C69.3,645.9,70.5,647.2,72,648.8 M61.2,648.9c1,1,1.8,1.8,1.9,1.8c0.1,0-0.6-0.8-1.6-1.8c-1-1-1.8-1.8-1.9-1.8
		C59.5,647.1,60.2,647.9,61.2,648.9 M63.6,649.2c0.6,0.7,1.2,1.2,1.3,1.2s-0.4-0.5-1-1.2c-0.6-0.7-1.2-1.2-1.3-1.2
		C62.5,648,63,648.6,63.6,649.2 M66.1,649c0,0,1,1.1,2.3,2.3l2.3,2.2l-2.2-2.3C66.4,649.1,66.1,648.8,66.1,649 M68.6,650.4
		c0.6,0.7,1.2,1.2,1.3,1.2c0.1,0-0.4-0.5-1-1.2c-0.6-0.7-1.2-1.2-1.3-1.2S68,649.7,68.6,650.4 M159.1,659.4c-1.5,0.9-2.8,1.7-3,1.7
		c-0.2,0.1-0.2,0.2-0.1,0.3c0.1,0.2,5.1-2.8,5.8-3.4C162.3,657.6,161.8,657.8,159.1,659.4 M86.3,664.6c0,0.2,1.8,1,2,0.8
		c0.1,0-0.4-0.3-0.9-0.6C86.8,664.6,86.3,664.4,86.3,664.6 M115.9,669.6c0.4,0.1,0.9,0.1,1.2,0c0.3-0.1,0-0.1-0.7-0.1
		C115.7,669.5,115.5,669.5,115.9,669.6 M125.4,669.6c0.4,0.1,0.9,0.1,1.2,0c0.3-0.1,0-0.1-0.7-0.1
		C125.2,669.5,125,669.5,125.4,669.6 M116.5,670.5c0.4,0.1,0.9,0.1,1.2,0c0.3-0.1,0-0.1-0.7-0.1
		C116.3,670.3,116.1,670.4,116.5,670.5 M124.8,670.5c0.4,0.1,1,0.1,1.3,0c0.4-0.1,0.1-0.1-0.7-0.1
		C124.7,670.3,124.4,670.4,124.8,670.5 M117.4,671.7c1,0.1,2.7,0.1,3.7,0c1-0.1,0.2-0.1-1.9-0.1
		C117.2,671.6,116.3,671.6,117.4,671.7 M118,672.6c0.9,0.1,2.2,0.1,3,0c0.8-0.1,0.1-0.1-1.6-0.1C117.7,672.5,117.1,672.5,118,672.6"
		/>
</g>
</svg>
